<svg xmlns="http://www.w3.org/2000/svg" viewBox="0 0 900 540" role="img" aria-label="Vườn mầm sống">
  <defs>
    <linearGradient id="bg" x1="0" x2="1" y1="0" y2="1">
      <stop offset="0" stop-color="#fff7c6"/>
      <stop offset="1" stop-color="#c8ffe0"/>
    </linearGradient>
  </defs>
  <rect width="900" height="540" rx="42" fill="url(#bg)"/>
  <path d="M0 390c124-50 224-50 346-8 126 44 276 46 554-14v172H0z" fill="#2cc36b"/>
  <path d="M0 446h900v94H0z" fill="#7a4b2a"/>
  <path d="M448 418V260" stroke="#16864b" stroke-width="24" stroke-linecap="round"/>
  <path d="M448 300c-64-84-150-72-192 0 76 40 142 38 192 0z" fill="#34c86f" stroke="#101725" stroke-width="12"/>
  <path d="M450 270c70-88 164-76 210 0-80 44-150 42-210 0z" fill="#45de7b" stroke="#101725" stroke-width="12"/>
  <path d="M448 238c-16-92 42-148 114-158 30 70-8 142-114 158z" fill="#8ee35a" stroke="#101725" stroke-width="12"/>
  <circle cx="218" cy="164" r="62" fill="#ffd93d" stroke="#101725" stroke-width="10"/>
  <rect x="604" y="340" width="118" height="86" rx="20" fill="#fffdf6" stroke="#101725" stroke-width="12"/>
  <path d="M636 384h54" stroke="#6337d8" stroke-width="14" stroke-linecap="round"/>
  <path d="M174 402c18-42 58-42 76 0" fill="none" stroke="#16864b" stroke-width="18" stroke-linecap="round"/>
</svg>
