<svg xmlns="http://www.w3.org/2000/svg" viewBox="0 0 900 540" role="img" aria-label="Đại dương xanh">
  <defs>
    <linearGradient id="bg" x1="0" x2="1" y1="0" y2="1">
      <stop offset="0" stop-color="#a6ecff"/>
      <stop offset="1" stop-color="#5f7cff"/>
    </linearGradient>
    <linearGradient id="sea" x1="0" x2="0" y1="0" y2="1">
      <stop offset="0" stop-color="#23c7ff"/>
      <stop offset="1" stop-color="#1464c8"/>
    </linearGradient>
  </defs>
  <rect width="900" height="540" rx="42" fill="url(#bg)"/>
  <path d="M0 248c96 44 174 44 266 0 98-48 180-42 276 0 104 44 214 46 358 0v292H0z" fill="url(#sea)"/>
  <path d="M0 356c92-40 182-40 274 0s180 40 276 0 214-40 350 0" fill="none" stroke="#ffffff" stroke-width="18" opacity=".75"/>
  <path d="M154 386c58-64 128-64 188 0-60 50-128 50-188 0z" fill="#ffd93d" stroke="#101725" stroke-width="12"/>
  <circle cx="238" cy="374" r="12" fill="#101725"/>
  <path d="M516 328l72-62 72 62-72 62z" fill="#ff5d8f" stroke="#101725" stroke-width="12"/>
  <circle cx="588" cy="328" r="28" fill="#ffffff"/>
  <rect x="642" y="166" width="94" height="152" rx="28" fill="#7be0ff" stroke="#101725" stroke-width="12" transform="rotate(-18 689 242)"/>
  <rect x="202" y="142" width="132" height="80" rx="28" fill="#ffffff" stroke="#101725" stroke-width="12"/>
  <path d="M246 180h46" stroke="#2cc36b" stroke-width="16" stroke-linecap="round"/>
</svg>
